# xmcd CD database file
#
# Track frame offsets:
#	150
#	12130
#	55726
#	73608
#	95191
#	116731
#	132552
#	147302
#	170691
#	217773
#	242222
#
# Disc length: 3670 seconds
#
# Revision: 0
# Processed by: cddbd v1.4PL0 Copyright (c) Steve Scherf et al.
# Submitted via: Feurio! 1.65 - http://www.feurio.com
#
DISCID=a40e540b
DTITLE=Emmylou Harris - Boston, October 17 2000 - Disc 2
DYEAR=1900
DGENRE=Country
TTITLE0=Orphan girl
TTITLE1=Deeper well
TTITLE2=Calling my children home
TTITLE3=Hickory wind
TTITLE4=Michaelangelo
TTITLE5=Boy from Tupelo
TTITLE6=Wheels
TTITLE7=Born to run
TTITLE8=The maker
TTITLE9=Pancho and Lefty
TTITLE10=Mary (Patty Griffin)
EXTD=
EXTT0=
EXTT1=
EXTT2=
EXTT3=
EXTT4=
EXTT5=
EXTT6=
EXTT7=
EXTT8=
EXTT9=
EXTT10=
PLAYORDER=
